<svg width="48" height="13" viewBox="0 0 48 13" fill="none" xmlns="http://www.w3.org/2000/svg">
<path d="M0.0493609 12V10.8068L3.74077 6.98224C4.13494 6.56676 4.45987 6.20277 4.71555 5.89027C4.97479 5.57422 5.16832 5.27415 5.29617 4.99006C5.42401 4.70597 5.48793 4.40412 5.48793 4.08452C5.48793 3.7223 5.4027 3.4098 5.23224 3.14702C5.06179 2.88068 4.82919 2.67649 4.53445 2.53445C4.2397 2.38885 3.90767 2.31605 3.53835 2.31605C3.14773 2.31605 2.80682 2.39595 2.51562 2.55575C2.22443 2.71555 2.00071 2.94105 1.84446 3.23224C1.68821 3.52344 1.61009 3.86435 1.61009 4.25497H0.0387075C0.0387075 3.59091 0.191406 3.0103 0.496804 2.51314C0.802202 2.01598 1.22124 1.63068 1.75391 1.35724C2.28658 1.08026 2.89205 0.941761 3.57031 0.941761C4.25568 0.941761 4.85938 1.07848 5.38139 1.35192C5.90696 1.6218 6.31712 1.99112 6.61186 2.45987C6.90661 2.92507 7.05398 3.45064 7.05398 4.03658C7.05398 4.44141 6.97763 4.83736 6.82493 5.22443C6.67578 5.61151 6.41477 6.04297 6.0419 6.51882C5.66903 6.99112 5.15057 7.56463 4.48651 8.23935L2.31854 10.5085V10.5884H7.22976V12H0.0493609ZM12.7315 12.1811C11.8899 12.1776 11.1708 11.9556 10.5742 11.5153C9.97761 11.0749 9.52129 10.4339 9.20524 9.59233C8.88919 8.75071 8.73117 7.73686 8.73117 6.55078C8.73117 5.36825 8.88919 4.35795 9.20524 3.51989C9.52484 2.68182 9.98294 2.04261 10.5795 1.60227C11.1797 1.16193 11.897 0.941761 12.7315 0.941761C13.566 0.941761 14.2816 1.16371 14.8782 1.6076C15.4748 2.04794 15.9311 2.68714 16.2471 3.52521C16.5667 4.35973 16.7265 5.36825 16.7265 6.55078C16.7265 7.74041 16.5685 8.75604 16.2525 9.59766C15.9364 10.4357 15.4801 11.0767 14.8835 11.5206C14.2869 11.9609 13.5696 12.1811 12.7315 12.1811ZM12.7315 10.7589C13.4702 10.7589 14.0472 10.3984 14.4627 9.67756C14.8817 8.95668 15.0913 7.91442 15.0913 6.55078C15.0913 5.64524 14.9954 4.87997 14.8036 4.25497C14.6154 3.62642 14.3437 3.15057 13.9886 2.82741C13.6371 2.50071 13.218 2.33736 12.7315 2.33736C11.9964 2.33736 11.4194 2.69957 11.0003 3.42401C10.5813 4.14844 10.37 5.1907 10.3665 6.55078C10.3665 7.45987 10.4606 8.22869 10.6488 8.85724C10.8405 9.48224 11.1122 9.95632 11.4638 10.2795C11.8153 10.5991 12.2379 10.7589 12.7315 10.7589ZM18.3012 12V10.8068L21.9926 6.98224C22.3868 6.56676 22.7117 6.20277 22.9674 5.89027C23.2266 5.57422 23.4202 5.27415 23.548 4.99006C23.6758 4.70597 23.7398 4.40412 23.7398 4.08452C23.7398 3.7223 23.6545 3.4098 23.4841 3.14702C23.3136 2.88068 23.081 2.67649 22.7863 2.53445C22.4915 2.38885 22.1595 2.31605 21.7902 2.31605C21.3996 2.31605 21.0587 2.39595 20.7675 2.55575C20.4763 2.71555 20.2525 2.94105 20.0963 3.23224C19.94 3.52344 19.8619 3.86435 19.8619 4.25497H18.2905C18.2905 3.59091 18.4432 3.0103 18.7486 2.51314C19.054 2.01598 19.4731 1.63068 20.0057 1.35724C20.5384 1.08026 21.1439 0.941761 21.8221 0.941761C22.5075 0.941761 23.1112 1.07848 23.6332 1.35192C24.1588 1.6218 24.569 1.99112 24.8637 2.45987C25.1584 2.92507 25.3058 3.45064 25.3058 4.03658C25.3058 4.44141 25.2295 4.83736 25.0768 5.22443C24.9276 5.61151 24.6666 6.04297 24.2937 6.51882C23.9209 6.99112 23.4024 7.56463 22.7383 8.23935L20.5704 10.5085V10.5884H25.4816V12H18.3012ZM26.722 9.86932V8.53764L31.4361 1.09091H32.4855V3.05114H31.8196L28.4478 8.38849V8.47372H34.9091V9.86932H26.722ZM31.8942 12V9.46449L31.9049 8.85724V1.09091H33.4656V12H31.8942ZM39.1991 6.54545C39.1991 5.97372 39.3393 5.4517 39.6199 4.9794C39.9004 4.5071 40.2751 4.13246 40.7438 3.85547C41.2161 3.57493 41.7381 3.43466 42.3099 3.43466C42.807 3.43466 43.2669 3.54297 43.6895 3.75959C44.1121 3.97266 44.4619 4.26562 44.7388 4.63849C45.0158 5.01136 45.1845 5.4304 45.2449 5.8956H43.8599C43.796 5.56534 43.6149 5.29545 43.3166 5.08594C43.0219 4.87287 42.6863 4.76633 42.3099 4.76633C41.9832 4.76633 41.6849 4.84624 41.415 5.00604C41.1451 5.16584 40.9303 5.38068 40.7705 5.65057C40.6107 5.9169 40.5308 6.2152 40.5308 6.54545C40.5308 6.87216 40.6107 7.17045 40.7705 7.44034C40.9303 7.71023 41.1451 7.92507 41.415 8.08487C41.6849 8.24467 41.9832 8.32457 42.3099 8.32457C42.6863 8.32457 43.0077 8.21982 43.274 8.0103C43.5403 7.79723 43.7072 7.52557 43.7747 7.19531H45.1597C45.0993 7.66051 44.9377 8.07955 44.6749 8.45241C44.4121 8.82528 44.0766 9.12003 43.6682 9.33665C43.2598 9.54972 42.807 9.65625 42.3099 9.65625C41.7381 9.65625 41.2161 9.51776 40.7438 9.24077C40.2751 8.96023 39.9004 8.58381 39.6199 8.11151C39.3393 7.6392 39.1991 7.11719 39.1991 6.54545ZM42.2619 12.1705C41.4878 12.1705 40.7598 12.0249 40.078 11.7337C39.3997 11.4425 38.8013 11.0394 38.2829 10.5245C37.768 10.006 37.3631 9.40767 37.0684 8.7294C36.7772 8.05114 36.6334 7.32315 36.6369 6.54545C36.6405 5.76776 36.7879 5.03977 37.079 4.36151C37.3738 3.68324 37.7786 3.08665 38.2935 2.57173C38.8084 2.05327 39.405 1.64844 40.0833 1.35724C40.7616 1.06605 41.4878 0.920454 42.2619 0.920454C43.0396 0.920454 43.7676 1.06605 44.4459 1.35724C45.1277 1.64844 45.7243 2.05327 46.2357 2.57173C46.7506 3.08665 47.1536 3.68324 47.4448 4.36151C47.736 5.03977 47.8834 5.76776 47.8869 6.54545C47.8905 7.32315 47.7467 8.05114 47.4555 8.7294C47.1643 9.40767 46.7612 10.006 46.2463 10.5245C45.7314 11.0394 45.133 11.4425 44.4512 11.7337C43.7694 12.0249 43.0396 12.1705 42.2619 12.1705ZM42.2619 10.7536C42.8443 10.7536 43.3912 10.6452 43.9026 10.4286C44.4139 10.212 44.8614 9.91193 45.2449 9.52841C45.632 9.14134 45.9338 8.69389 46.1504 8.18608C46.367 7.67472 46.4736 7.12962 46.47 6.55078C46.47 5.96839 46.3599 5.42152 46.1398 4.91016C45.9232 4.39879 45.6213 3.95135 45.2342 3.56783C44.8507 3.18075 44.405 2.87891 43.8972 2.66229C43.3894 2.44567 42.8443 2.33736 42.2619 2.33736C41.6831 2.33736 41.1398 2.44567 40.632 2.66229C40.1241 2.87891 39.6767 3.18075 39.2896 3.56783C38.9061 3.9549 38.6043 4.40412 38.3841 4.91548C38.1639 5.4233 38.0538 5.96839 38.0538 6.55078C38.0503 7.12607 38.1568 7.66939 38.3734 8.18075C38.5936 8.68857 38.8955 9.13601 39.279 9.52308C39.666 9.90661 40.1135 10.2085 40.6213 10.4286C41.1327 10.6452 41.6795 10.7536 42.2619 10.7536Z" fill="#111111"/>
</svg>
