<svg width="32" height="32" viewBox="0 0 32 32" fill="none" xmlns="http://www.w3.org/2000/svg">
<rect width="32" height="32" rx="16" fill="black"/>
<g opacity="0.8">
<rect width="16" height="16" transform="translate(7 8)" fill="black"/>
<path fill-rule="evenodd" clip-rule="evenodd" d="M8.67494 15.2326C12.612 13.5172 15.2373 12.3864 16.5509 11.84C20.3014 10.28 21.0808 10.009 21.5887 10.0001C21.7004 9.99813 21.9502 10.0258 22.112 10.1571C22.2487 10.268 22.2863 10.4177 22.3043 10.5229C22.3222 10.628 22.3446 10.8674 22.3268 11.0545C22.1236 13.19 21.2442 18.3723 20.7968 20.7642C20.6074 21.7762 20.2347 22.1156 19.8738 22.1488C19.0895 22.2209 18.494 21.6305 17.7344 21.1325C16.5457 20.3534 15.8742 19.8683 14.7205 19.108C13.3871 18.2293 14.2515 17.7464 15.0114 16.9571C15.2102 16.7505 18.6657 13.6074 18.7326 13.3223C18.741 13.2867 18.7488 13.1537 18.6698 13.0835C18.5908 13.0134 18.4743 13.0374 18.3902 13.0564C18.271 13.0835 16.3721 14.3386 12.6936 16.8217C12.1546 17.1918 11.6664 17.3721 11.229 17.3627C10.7468 17.3523 9.81922 17.09 9.12967 16.8659C8.2839 16.591 7.61171 16.4456 7.67024 15.9787C7.70073 15.7355 8.03563 15.4868 8.67494 15.2326Z" fill="#FAFF00"/>
</g>
</svg>
